<svg version="1.2" xmlns="http://www.w3.org/2000/svg" viewBox="0 0 1500 1500" width="500" height="500">
	<style>
		.s0 { fill: #ffffff } 
		.s1 { fill: #000000 } 
	</style>
	<g id="Layer 1">
		<g id="Background">
			<path id="Path 1" fill-rule="evenodd" class="s0" d="m580.5 526.56c-3.89 0.77-11.11 3.39-16.25 5.91-6.93 3.39-11.16 6.35-16.84 11.78-4.18 3.99-9.27 9.95-11.31 13.25-2.05 3.3-4.76 8.48-6.02 11.5-1.27 3.03-2.93 8.76-3.69 12.75-1.15 5.99-1.39 35.2-1.39 168.25 0 140.38 0.2 161.99 1.53 168.75 0.92 4.65 3.37 11.55 6.15 17.25 3.85 7.93 6.03 10.92 13.22 18.12 7.27 7.28 10.07 9.32 18.1 13.16 5.23 2.5 12.76 5.26 16.75 6.14 6.45 1.4 25.18 1.58 169.5 1.59 159.09 0.01 162.41-0.03 170.25-1.99 4.4-1.11 11.83-3.89 16.5-6.2 6.73-3.31 10.29-5.97 17.11-12.75 7.24-7.2 9.35-10.09 13.22-18.07 2.76-5.68 5.23-12.62 6.14-17.25 1.33-6.76 1.53-28.37 1.53-168.75 0-137.87-0.21-162.11-1.48-168.75-0.91-4.77-3.21-11.3-6-17-3.39-6.94-6.33-11.14-11.77-16.84-3.99-4.18-9.95-9.27-13.25-11.31-3.3-2.05-8.48-4.76-11.5-6.02-3.02-1.27-8.76-2.93-12.75-3.69-6.01-1.15-35.02-1.37-169-1.3-132.88 0.08-163 0.34-168.75 1.47z"/>
			<path id="Path 2" fill-rule="evenodd" class="s1" d="m667.92 675.41c-0.23 0.23-0.31 10.36-0.17 22.5l0.25 22.09c59.14-0.7 74.21-1.33 82-2.38 6.33-0.85 11.61-1.33 11.75-1.08 0.14 0.25-4.14 4.02-9.5 8.37-5.36 4.36-27.41 25.62-49 47.25l-39.26 39.34 32.07 32c63.91-64.33 85.16-86.47 88.45-90.71 3.3-4.24 6.12-7.62 6.27-7.5 0.15 0.12-0.48 6.51-1.41 14.21-1.26 10.35-1.72 22.6-1.78 47l-0.09 33 44.5 0.5v-165c-126.84 0-163.85 0.19-164.08 0.41z"/>
		</g>
	</g>
</svg>