<svg version="1.2" xmlns="http://www.w3.org/2000/svg" viewBox="0 0 1500 1500" width="500" height="500">
	<style>
		.s0 { fill: #000000 } 
		.s1 { fill: #ffffff } 
	</style>
	<g id="Layer 1">
		<g id="Background">
			<path id="Path 1" fill-rule="evenodd" class="s0" d="m579.5 526.86c-3.85 0.94-10.38 3.31-14.5 5.27-4.13 1.96-10.2 5.73-13.5 8.38-3.3 2.65-7.97 7.11-10.37 9.9-2.41 2.8-6.31 9.14-8.68 14.09-2.36 4.95-5.01 12.49-5.88 16.75-1.39 6.86-1.57 26.18-1.57 168.75 0 140.38 0.2 161.99 1.53 168.75 0.92 4.65 3.37 11.55 6.15 17.25 3.85 7.93 6.03 10.92 13.22 18.12 7.27 7.28 10.07 9.32 18.1 13.16 5.23 2.5 12.76 5.26 16.75 6.14 6.45 1.4 25.18 1.58 169.5 1.59 159.09 0.01 162.41-0.03 170.25-1.99 4.4-1.11 11.83-3.89 16.5-6.2 6.73-3.31 10.29-5.97 17.11-12.75 7.24-7.2 9.35-10.09 13.22-18.07 2.76-5.68 5.23-12.62 6.14-17.25 1.33-6.76 1.53-28.37 1.53-168.75 0-141.9-0.19-161.92-1.56-168.75-0.9-4.47-3.49-11.77-6.13-17.25-3.85-8-5.94-10.86-13.19-18.12-7.28-7.27-10.1-9.32-18.12-13.16-5.23-2.5-12.76-5.26-16.75-6.14-6.46-1.41-25.02-1.57-170-1.51-150.02 0.07-163.3 0.21-169.75 1.79z"/>
			<path id="Path 2" fill-rule="evenodd" class="s1" d="m667.92 675.41c-0.23 0.23-0.31 10.36-0.17 22.5l0.25 22.09c59.14-0.7 74.21-1.33 82-2.38 6.33-0.85 11.61-1.33 11.75-1.08 0.14 0.25-4.14 4.02-9.5 8.37-5.36 4.36-27.41 25.62-49 47.25l-39.26 39.34 32.07 32c63.91-64.33 85.16-86.47 88.45-90.71 3.3-4.24 6.12-7.62 6.27-7.5 0.15 0.12-0.48 6.51-1.41 14.21-1.26 10.35-1.72 22.6-1.78 47l-0.09 33 44.5 0.5v-165c-126.84 0-163.85 0.19-164.08 0.41z"/>
		</g>
	</g>
</svg>