<svg version="1.2" xmlns="http://www.w3.org/2000/svg" viewBox="0 0 1500 1500" width="1500" height="1500">
	<style>
		.s0 { fill: #000000 } 
		.s1 { fill: #ffffff } 
	</style>
	<g id="Layer 1">
		<g id="Background">
			<path id="Path 1" fill-rule="evenodd" class="s0" d="m148.5 93.01c-2.2 0.44-6.7 1.76-10 2.93-3.3 1.17-8.93 3.75-12.5 5.75-3.68 2.05-9.78 6.92-14.06 11.21-5.99 6.01-8.55 9.59-12.28 17.1-2.69 5.44-5.34 12.6-6.18 16.75-1.3 6.36-1.45 81.89-1.23 612l0.25 604.75c3.61 10.08 6.24 15.92 8.19 19.5 1.94 3.58 5.61 8.95 8.17 11.94 2.55 3 7.34 7.45 10.64 9.9 3.3 2.45 9.15 5.91 13 7.69 3.85 1.79 10.26 3.97 14.25 4.86 6.63 1.47 59.02 1.61 608.75 1.61 551.03 0 602.11-0.14 608.75-1.62 3.99-0.89 10.17-2.95 13.75-4.57 3.58-1.62 9.2-4.87 12.5-7.23 3.3-2.35 8.38-6.93 11.28-10.18 2.9-3.24 7.04-9.28 9.2-13.4 2.16-4.13 4.85-11.1 5.98-15.5l2.06-8c-0.05-1126.9-0.24-1205.91-1.52-1212-0.8-3.85-3.46-11.05-5.91-16-2.54-5.13-6.75-11.54-9.77-14.9-2.93-3.25-8.02-7.81-11.32-10.13-3.3-2.33-7.8-5.13-10-6.24-2.2-1.11-6.92-3.08-10.5-4.37l-6.5-2.36c-938.52-0.22-1212.8 0.07-1215 0.51z"/>
			<path id="Path 2" fill-rule="evenodd" class="s1" d="m512 600v66c185.12-0.6 199.63-0.86 214.5-2.43 9.35-0.98 27.8-3.25 41-5.04 13.2-1.79 24.34-2.98 24.76-2.64 0.42 0.34-6.55 6.3-15.5 13.26-8.94 6.96-21.43 17.05-27.76 22.42-6.33 5.37-64.49 62.67-129.26 127.35l-117.76 117.58 94.02 94c176.06-175.92 232.55-233.08 239.13-240.5 6.57-7.42 18.57-21.92 26.66-32.21 8.09-10.3 14.94-18.55 15.21-18.34 0.27 0.21-0.5 7.95-1.72 17.21-1.22 9.26-3.34 26.74-4.72 38.84-1.38 12.1-2.99 30.33-3.58 40.5-0.65 11.28-0.96 50.89-0.78 101.5l0.3 83h131l0.49-486.5h-485.99z"/>
		</g>
	</g>
</svg>