<svg version="1.2" xmlns="http://www.w3.org/2000/svg" viewBox="0 0 1500 1500" width="500" height="500">
	<style>
		.s0 { fill: #ffffff } 
	</style>
	<g id="Layer 1">
		<g id="Background">
			<path id="Path 1" fill-rule="evenodd" class="s0" d="m314 652.1c4.13-0.05 11.32 0.53 16 1.29 4.68 0.75 11.88 2.55 16 4 4.13 1.44 10.65 4.5 14.5 6.78 3.85 2.28 10.15 7.36 14 11.29 3.85 3.93 8.57 9.81 10.5 13.08 1.93 3.26 4.7 9.32 6.16 13.45 1.46 4.13 3.04 9.88 4.34 18.04l-39.5-0.03-1.09-4.75c-0.6-2.61-2.03-6.55-3.17-8.75-1.14-2.2-4.14-6.04-6.66-8.53-2.52-2.49-7.17-5.75-10.33-7.25-3.16-1.49-9.01-3.18-13-3.75-4.82-0.68-9.6-0.69-14.25-0.04-3.85 0.53-8.8 1.72-11 2.64-2.2 0.91-6.25 3.16-9 5-2.75 1.83-6.87 5.71-9.16 8.63-2.29 2.91-5.28 7.78-6.64 10.8-1.37 3.02-3.3 8.42-4.29 12-1.4 5.02-1.82 10.26-1.85 23-0.04 14.21 0.27 17.58 2.2 24.25 1.23 4.26 3.55 10.34 5.15 13.5 1.6 3.16 4.64 7.74 6.75 10.18 2.11 2.44 6.09 5.86 8.84 7.6 2.75 1.75 7.48 4.02 10.5 5.05 3.83 1.3 8.23 1.86 14.5 1.83 5.54-0.03 11.31-0.72 15-1.81 3.3-0.97 8.21-3.19 10.92-4.93 2.7-1.74 6.36-4.97 8.12-7.17 1.77-2.2 4.01-5.58 4.98-7.5 0.97-1.92 2.29-5.3 4.07-11.5l18.95-0.25c10.43-0.14 19.26 0.09 19.62 0.5 0.36 0.41-0.2 4.12-1.24 8.25-1.04 4.12-4.01 11.77-6.59 17-3.86 7.83-6.19 11.01-13.26 18.1-4.99 5.01-11.49 10.31-15.57 12.69-3.85 2.25-10.38 5.22-14.5 6.59-4.13 1.37-10.43 2.97-14 3.55-3.57 0.58-11.23 1.05-17 1.04-6.47-0.01-13.76-0.73-19-1.87-4.68-1.03-11.43-3.04-15-4.49-3.57-1.44-8.91-4.08-11.85-5.87-2.95-1.78-7.9-5.44-11-8.13-3.11-2.68-8.09-8.08-11.06-12-2.98-3.91-7.35-11.16-9.7-16.11-2.36-4.95-5.25-12.83-6.43-17.5-1.57-6.23-2.28-12.91-2.67-25-0.34-10.59-0.09-19.73 0.7-25.5 0.69-4.95 2.56-13.05 4.18-18 1.61-4.95 4.94-12.6 7.4-17 2.45-4.4 7.27-11.11 10.7-14.9 3.43-3.8 8.93-8.81 12.23-11.13 3.3-2.33 8.7-5.57 12-7.21 3.3-1.64 8.48-3.79 11.5-4.78 3.02-0.99 9.1-2.36 13.5-3.04 4.4-0.68 11.37-1.28 15.5-1.34zm553.83 2.07l17.34-0.13c9.53-0.08 18.12 0.11 19.08 0.41 1.65 0.52 1.75 5.9 1.75 188.55l-17.36 0.25c-9.54 0.14-18.09 0.14-19 0-1.51-0.23-1.65-7.87-1.72-94.67zm-238.84 14.84h38v34.5h26.5l0.25 14.25c0.25 14.03 0.22 14.25-2 14.82-1.23 0.32-7.31 0.44-24.75-0.07v37.25c0 31.11 0.25 37.74 1.5 40.25 1.02 2.03 2.71 3.36 5.25 4.13 2.36 0.71 6.53 0.88 18.75-0.25l2 14c1.1 7.7 1.78 14.22 1.5 14.51-0.27 0.28-3.65 0.97-7.5 1.54-3.85 0.56-10.6 1.04-15 1.05-4.4 0.02-10.7-0.47-14-1.07-3.3-0.61-8.47-2.29-11.5-3.73-3.02-1.45-6.96-4.11-8.75-5.91-1.78-1.8-4.32-5.41-5.62-8.02-1.31-2.62-2.88-7.12-3.5-10-0.73-3.38-1.13-19.16-1.13-44.25 0-30.49-0.27-39.02-1.25-39.1-0.68-0.05-5.18-0.05-18.75 0.1l0.5-29.5 8.5-0.21c4.68-0.12 9.07-0.23 9.75-0.25 0.95-0.03 1.25-4.13 1.25-17.04zm652 0v17c0 12.87 0.31 17.02 1.25 17.11 0.69 0.06 5.75 0.01 11.25-0.11 5.5-0.12 11.02 0.06 12.25 0.39 2.2 0.59 2.25 0.93 2.25 28.61l-2.75 0.54c-1.51 0.31-7.02 0.49-12.25 0.41-5.22-0.08-10.06-0.1-10.75-0.05-0.97 0.07-1.25 8.06-1.24 36.35 0 32.51 0.18 36.61 1.75 39.73 0.96 1.92 2.87 4.08 4.24 4.81 1.79 0.94 5.01 1.16 11.25 0.76 5.54-0.35 8.75-0.19 8.75 0.45 0 0.55 0.67 5.61 1.49 11.25 0.82 5.63 1.73 11.6 2.55 16.25l-7.52 1.25c-4.13 0.68-11.45 1.23-16.27 1.21-4.81-0.02-11.45-0.63-14.75-1.35-3.3-0.72-7.57-2-9.5-2.83-1.92-0.84-5.68-3.49-8.34-5.9-2.67-2.41-5.93-6.63-7.25-9.38-1.32-2.75-2.84-8.38-3.37-12.5-0.54-4.13-0.99-23.82-1.01-43.75-0.02-28.28-0.3-36.27-1.28-36.32-0.68-0.04-5.18-0.04-18.75 0.07l0.5-29.5h19.51l-0.17-16.59c-0.09-9.12 0.21-16.88 0.66-17.25 0.46-0.36 9.09-0.66 37.5-0.66zm-505.25 33.07c7.02-0.04 15.56 0.56 20 1.41 4.27 0.82 10.9 3.02 14.75 4.9 3.85 1.87 9.64 5.82 12.85 8.76 3.78 3.47 6.88 7.48 8.76 11.36 1.77 3.66 3.28 8.92 3.87 13.5 0.53 4.12 0.98 28.53 0.99 54.25 0.03 36.74-0.23 46.75-1.22 46.76-0.68 0-8.9 0.08-35.25 0.33l-0.33-8.92c-0.18-4.91-0.55-9.15-0.83-9.42-0.27-0.28-0.99 0.4-1.6 1.5-0.62 1.1-3 4.02-5.3 6.5-2.3 2.47-6.82 5.92-10.06 7.66-3.23 1.74-8.8 3.72-12.38 4.4-4.05 0.78-10.07 1.02-16 0.66-5.96-0.37-11.92-1.44-16-2.87-3.57-1.25-8.6-3.87-11.18-5.82-2.58-1.94-5.89-5.11-7.36-7.03-1.48-1.93-3.52-5.3-4.54-7.5-1.03-2.2-2.27-7.15-2.75-11-0.51-4.02-0.52-9.99-0.02-14 0.52-4.21 1.96-9.15 3.61-12.38 1.51-2.95 4.77-7.2 7.24-9.45 2.48-2.24 7.2-5.33 10.5-6.86 3.3-1.53 10.05-3.66 15-4.73 4.95-1.08 13.5-2.45 19-3.05 5.5-0.6 12.82-1.53 16.25-2.06 3.44-0.54 7.83-1.76 9.76-2.72 1.93-0.97 3.99-2.88 4.58-4.25 0.59-1.38 0.81-4.3 0.49-6.5-0.31-2.2-1.59-5.58-2.83-7.5-1.25-1.93-4.28-4.52-6.75-5.76-3.56-1.79-6.16-2.26-12.5-2.24-6.24 0.01-9.09 0.52-13 2.34-2.75 1.28-6.38 3.86-8.06 5.74-1.69 1.88-3.37 4.43-3.75 5.67-0.38 1.23-1.25 2.25-1.94 2.24-0.68 0-8.22-0.9-16.75-1.99-8.52-1.1-15.83-2-16.25-2-0.41 0-0.47-1.47-0.12-3.25 0.34-1.79 1.92-5.84 3.5-9 1.58-3.17 5.24-8.12 8.14-11 2.9-2.89 8.41-6.92 12.25-8.95 3.84-2.03 10.58-4.59 14.98-5.68 5.65-1.4 11.6-2 20.25-2.05zm374.75 0.33c13.21 0.26 17.23 0.71 23 2.55 3.85 1.23 9.25 3.51 12 5.06 2.75 1.55 7.16 5 9.8 7.65 2.64 2.66 6.13 7.54 7.75 10.84 1.61 3.3 3.17 7.46 3.45 9.25 0.45 2.92 0.23 3.29-2.25 3.72-1.51 0.27-8.15 1.19-14.75 2.06-6.6 0.86-12.78 1.77-13.75 2.02-1.23 0.31-2.16-0.52-3.16-2.8-0.77-1.79-2.35-4.49-3.5-6-1.15-1.52-4-3.77-6.34-5-3.54-1.87-5.83-2.25-13.75-2.25-8.46 0-9.99 0.28-14 2.63-2.47 1.45-5.17 3.88-6 5.39-0.82 1.52-1.41 4.39-1.31 6.37 0.11 1.98 1.01 4.68 2 5.99 1 1.32 3.61 3.31 5.81 4.44 2.2 1.13 12.33 3.7 22.5 5.72 10.18 2.01 20.98 4.46 24 5.43 3.03 0.97 7.97 3.18 10.99 4.9 3.01 1.72 7.01 4.7 8.89 6.63 1.87 1.92 4.58 5.97 6.01 9 2.25 4.73 2.61 6.83 2.61 15.02 0 8.68-0.28 10.09-3.18 16-1.81 3.67-5.49 8.76-8.5 11.76-2.94 2.91-8.67 7.02-12.82 9.19-4.12 2.15-11.55 4.88-16.5 6.07-7.78 1.87-11.09 2.11-24.5 1.74-13.98-0.38-16.33-0.72-24-3.39-4.67-1.64-11.16-4.75-14.41-6.93-3.26-2.18-7.71-5.99-9.9-8.46-2.19-2.48-5.2-7.2-6.69-10.5-1.49-3.3-3-7.47-3.35-9.25-0.36-1.79-0.31-3.25 0.1-3.25 0.42 0 7.5-0.91 15.75-2.02 8.25-1.11 16.02-2.23 17.25-2.5 1.82-0.39 2.37 0.05 2.85 2.27 0.33 1.51 1.91 4.66 3.5 7 1.83 2.67 4.85 5.27 8.15 7 4.7 2.45 6.26 2.74 14.75 2.68 7.57-0.04 10.47-0.5 14.25-2.25 2.85-1.31 5.55-3.49 6.75-5.43 1.1-1.79 2-4.94 2-7 0-2.49-0.79-4.68-2.33-6.5-1.28-1.52-4.21-3.54-6.5-4.5-2.29-0.97-11.93-3.37-21.42-5.34-9.48-1.98-19.72-4.42-22.75-5.43-3.02-1.01-7.52-2.96-10-4.33-2.47-1.37-6.5-4.44-8.95-6.82-2.45-2.38-5.6-6.81-7-9.83-2.24-4.85-2.55-6.82-2.54-16.5 0-10.06 0.24-11.46 2.75-16.25 1.51-2.89 4.43-7.11 6.49-9.39 2.07-2.27 5.55-5.34 7.75-6.81 2.2-1.48 6.48-3.72 9.5-4.98 3.03-1.26 8.2-2.89 11.5-3.64 4.08-0.91 11.12-1.25 22-1.03zm-645.28 0.64c37.56 0.01 68.84 0.34 69.52 0.74 0.96 0.56 1.18 15.91 0.76 139.56l-18-0.15c-9.9-0.08-18.33-0.16-18.75-0.17-0.41-0.01-0.73-12.29-0.71-27.27 0.02-16.47 0.57-31.81 1.39-38.75 0.75-6.33 1.19-11.84 0.97-12.25-0.22-0.42-3.07 2.51-6.33 6.5-3.26 3.98-21.26 22.55-74.06 75.25l-27.01-27 32.75-32.82c18.01-18.05 36.68-36.05 41.49-40 4.8-3.95 8.62-7.3 8.5-7.45-0.13-0.15-5.19 0.25-11.24 0.89-6.05 0.64-23.82 1.21-68 1.38l-0.17-17.97c-0.1-9.88 0-18.54 0.21-19.24 0.32-1.02 14.19-1.27 68.68-1.25zm442.12 0.13c10.37 0.18 19.16 0.55 19.53 0.83 0.37 0.27 6.41 18.05 13.43 39.5 7.01 21.45 14.09 44.73 15.73 51.75 1.63 7.01 3.31 12.75 3.72 12.75 0.42 0 1.8-4.16 3.08-9.25 1.28-5.09 8.66-28.15 16.4-51.25 7.74-23.1 14.42-42.45 14.84-43 0.45-0.59 8.61-1.11 19.85-1.25 14.72-0.2 19.09 0.03 19.11 1 0.01 0.68-13.31 36.35-29.62 79.25-16.3 42.9-30.87 80.7-32.38 84-1.51 3.3-4.72 8.63-7.14 11.84-2.41 3.21-6.86 7.51-9.89 9.55-3.02 2.04-7.97 4.59-11 5.66-4.63 1.64-8.08 1.94-22 1.88-10.37-0.04-17.52-0.5-22-2.43l2.54-10.25c1.39-5.64 2.97-11.94 4.46-17.75l9.75 0.64c8.73 0.57 10.2 0.41 14-1.5 2.54-1.28 4.92-3.45 5.92-5.39 0.92-1.79 2.27-6.07 4.33-15.75l-20.42-54.25c-11.23-29.84-23.05-61.34-26.25-69.99-3.2-8.66-5.61-16.01-5.34-16.33 0.27-0.32 8.98-0.44 19.35-0.26zm409.16 99.84c4.44-0.04 7.17 0.55 10.5 2.29 2.52 1.31 5.83 4.23 7.5 6.61 2.45 3.48 3.07 5.5 3.37 10.93 0.3 5.23-0.06 7.51-1.65 10.66-1.12 2.2-3.31 5.21-4.87 6.69-1.57 1.49-4.53 3.4-6.6 4.25-2.06 0.86-5.77 1.56-8.25 1.56-2.47 0-5.96-0.61-7.75-1.35-1.78-0.74-4.79-2.66-6.67-4.25-1.88-1.6-4.23-4.7-5.23-6.9-0.99-2.2-1.81-6.37-1.82-9.25-0.02-2.89 0.58-6.72 1.31-8.5 0.74-1.79 2.87-4.79 4.75-6.66 1.88-1.88 4.76-4 6.41-4.72 1.65-0.71 5.7-1.32 9-1.36zm-565.5-22.02c-3.57 0.98-11.22 2.5-17 3.4-6.86 1.06-12.38 2.57-15.95 4.36-3 1.51-6.38 4.02-7.5 5.59-1.25 1.73-2.18 4.84-2.39 8-0.27 4.11 0.14 5.86 2.01 8.66 1.34 2 4.47 4.56 7.33 5.98 4.02 1.99 6.48 2.48 12.5 2.46 5.97-0.03 8.62-0.56 13-2.64 3.03-1.44 7.3-4.59 9.5-7.02 2.45-2.69 4.49-6.23 5.25-9.1 0.69-2.57 1.25-8.51 1.25-13.18 0-4.68-0.33-8.45-0.75-8.39-0.41 0.07-3.67 0.91-7.25 1.88z"/>
		</g>
	</g>
</svg>