<svg version="1.2" xmlns="http://www.w3.org/2000/svg" viewBox="0 0 1500 1500" width="500" height="500">
	<style>
		.s0 { fill: #000000 } 
	</style>
	<g id="Layer 1">
		<g id="Background">
			<path id="Path 1" fill-rule="evenodd" class="s0" d="m258 652.1c4.13-0.05 11.32 0.53 16 1.3 4.68 0.76 11.43 2.37 15 3.58 3.57 1.2 8.98 3.5 12 5.09 3.02 1.6 8.2 5.07 11.5 7.71 3.3 2.65 8.17 7.49 10.82 10.77 2.65 3.27 6.56 9.55 8.68 13.95 2.13 4.4 4.56 10.7 5.42 14 0.85 3.3 1.55 7.24 1.58 11.5h-39l-0.58-3.75c-0.33-2.06-2.01-6.41-3.75-9.66-1.75-3.24-5.19-7.66-7.67-9.81-2.48-2.15-6.86-5.01-9.75-6.35-2.89-1.33-8.51-2.89-12.5-3.46-5.05-0.71-9.53-0.69-14.75 0.06-4.58 0.65-9.84 2.25-13.5 4.1-3.3 1.66-7.14 4-8.53 5.2-1.39 1.19-4.55 4.65-7.03 7.67-2.48 3.02-5.73 8.54-7.22 12.25-1.5 3.71-3.45 10.91-4.34 16-1.19 6.83-1.47 12.53-1.04 21.75 0.36 7.97 1.31 15.13 2.61 19.75 1.13 3.99 3.36 9.84 4.96 13 1.6 3.16 4.64 7.74 6.75 10.18 2.11 2.44 6.09 5.86 8.84 7.6 2.75 1.75 7.47 4.02 10.5 5.05 3.83 1.3 8.23 1.86 14.5 1.83 5.54-0.03 11.31-0.72 15-1.81 3.3-0.97 8.21-3.19 10.92-4.93 2.7-1.74 6.36-4.97 8.12-7.17 1.77-2.2 4.01-5.58 4.98-7.5 0.97-1.92 2.29-5.3 4.07-11.5l17.45-0.28c9.6-0.16 18.47-0.05 19.71 0.25 2.24 0.53 2.24 0.56 0.75 6.78-0.83 3.44-2.7 9.17-4.16 12.75-1.47 3.58-4.57 9.42-6.89 13-2.33 3.58-7.58 9.65-11.66 13.5-4.07 3.85-9.86 8.46-12.85 10.25-2.99 1.8-9.26 4.58-13.94 6.2-4.68 1.62-11.43 3.42-15 3.99-3.57 0.58-11.23 1.04-17 1.03-6.47-0.01-13.76-0.73-19-1.87-4.68-1.03-11.43-3.04-15-4.49-3.57-1.44-8.97-4.08-12-5.87-3.03-1.78-9.55-7.29-14.5-12.24-6.41-6.41-10.37-11.44-13.77-17.5-2.62-4.67-6.07-12.55-7.67-17.5-1.6-4.95-3.45-13.05-4.11-18-0.74-5.54-1-15.15-0.69-25 0.42-12.86 1.03-17.96 3.13-26 1.45-5.53 4.74-14.2 7.36-19.41 2.67-5.27 7.49-12.63 11-16.75 3.44-4.04 9.06-9.41 12.5-11.95 3.44-2.53 9.18-6.07 12.75-7.86 3.57-1.79 8.97-4.06 12-5.05 3.03-0.99 9.1-2.36 13.5-3.04 4.4-0.68 11.37-1.28 15.5-1.34zm571.83 1.94c9.17-0.08 17.46 0.11 18.42 0.41 1.65 0.52 1.75 5.9 1.75 188.55l-16.75 0.13c-9.21 0.07-17.76 0.18-21.24 0.37l-0.17-94.08c-0.1-51.75 0.16-94.35 0.58-94.67 0.41-0.32 8.25-0.64 17.41-0.71zm-256.83 14.96h38v34.5h26.5l0.25 14.25c0.25 14.06 0.22 14.26-2 14.74-1.24 0.26-7.31 0.49-24.75 0.51v37c0 30.89 0.25 37.5 1.5 40 1.02 2.04 2.71 3.36 5.25 4.13 2.36 0.72 6.53 0.88 18.75-0.24l2 13.99c1.1 7.7 1.77 14.23 1.5 14.51-0.28 0.28-3.65 0.98-7.5 1.54-3.85 0.57-10.6 1.04-15 1.06-4.4 0.01-10.7-0.47-14-1.08-3.3-0.6-8.25-2.15-11-3.44-2.75-1.29-6.73-4.06-8.85-6.16-2.12-2.1-4.88-5.84-6.15-8.31-1.26-2.48-2.79-7.2-3.4-10.5-0.69-3.73-1.11-20.5-1.11-44.25 0.01-29.91-0.26-38.26-1.24-38.3-0.69-0.03-5.08-0.14-18.25-0.45v-29h19.5zm652 0v17c0 12.89 0.3 17.02 1.25 17.08 0.69 0.05 6.65 0.16 25.25 0.42l0.25 14c0.19 10.38-0.07 14.19-1 14.73-0.69 0.41-6.76 0.75-25.75 0.77v36c0 29.78 0.26 36.6 1.5 39.5 0.89 2.08 2.82 4.17 4.75 5.14 2.6 1.31 4.9 1.51 11.5 1 4.54-0.35 8.25-0.3 8.26 0.11 0 0.41 0.9 6.71 2 14 1.09 7.29 1.99 13.47 1.99 13.75 0 0.27-3.94 1.01-8.75 1.63-4.81 0.63-13.48 0.89-19.25 0.59q-10.5-0.55-16.5-2.69c-3.3-1.17-7.99-3.8-10.42-5.83-2.44-2.04-5.54-5.5-6.9-7.7-1.36-2.2-3.15-6.03-3.98-8.5-1.22-3.65-1.57-12.33-1.85-45.75-0.27-32.1-0.63-41.26-1.6-41.32-0.69-0.03-5.19-0.03-18.75 0.07l0.5-29.5h19.5l-0.17-16.58c-0.09-9.12 0.21-16.89 0.67-17.25 0.46-0.37 9.08-0.67 37.5-0.67zm-505.25 33.07c7.02-0.04 15.56 0.56 20 1.42 4.26 0.81 10.9 3.02 14.75 4.89 3.85 1.88 9.63 5.82 12.85 8.77 3.8 3.48 6.86 7.45 8.74 11.35 1.59 3.3 3.33 9.15 3.88 13 0.54 3.85 1 28.26 1.01 54.25 0.02 37.13-0.25 47.25-1.23 47.27-0.69 0.01-7.78 0.04-15.75 0.05-7.98 0.02-15.51 0.01-16.75-0.02-2.16-0.05-2.25-0.4-2.25-9.05 0-5-0.44-9.22-1-9.5-0.55-0.28-2.07 1.19-3.39 3.25-1.31 2.06-3.9 5.28-5.75 7.16-1.85 1.87-6.74 5.02-10.86 7-7.47 3.57-7.56 3.59-21 3.59-12.52 0-14.08-0.22-21.5-2.98-6.22-2.31-9.3-4.2-13.84-8.5-3.41-3.23-6.94-7.8-8.5-11.02-2.46-5.09-2.66-6.46-2.66-18.5 0-12.47 0.12-13.24 3-18.9 1.65-3.24 5.02-7.69 7.5-9.89 2.47-2.19 7.2-5.27 10.5-6.83 3.3-1.57 10.05-3.73 15-4.8 4.95-1.07 13.5-2.44 19-3.04 5.5-0.6 12.81-1.53 16.25-2.07 3.44-0.53 7.37-1.42 8.75-1.97 1.37-0.55 3.41-2.01 4.52-3.25 1.11-1.24 2.02-3.6 2.02-5.25-0.01-1.65-0.53-4.58-1.16-6.5-0.64-1.92-2.11-4.57-3.27-5.88-1.16-1.31-3.91-3.21-6.11-4.23-2.82-1.3-6.35-1.85-12-1.86-6.29-0.01-9.07 0.49-13 2.32-2.75 1.28-6.38 3.86-8.06 5.74-1.69 1.87-3.43 4.53-3.88 5.91-0.75 2.29-1.15 2.44-4.94 1.83-2.26-0.37-10.11-1.5-30.74-4.33l0.6-2.5c0.33-1.38 2.03-5.42 3.78-9 1.76-3.61 5.42-8.72 8.23-11.5 2.77-2.75 8.19-6.66 12.03-8.7 3.84-2.03 10.58-4.58 14.98-5.67 5.65-1.4 11.6-2.01 20.25-2.06zm374.75 0.36c12.21 0.25 17.54 0.8 22.5 2.28 3.57 1.08 8.92 3.27 11.88 4.87 2.95 1.61 7.45 5 10 7.53 2.54 2.54 6.04 7.26 7.79 10.5 1.74 3.24 3.42 7.58 3.75 9.64 0.54 3.49 0.39 3.78-2.17 4.23-1.51 0.26-8.15 1.18-14.75 2.05-6.6 0.87-12.79 1.78-13.75 2.02-1.23 0.32-2.17-0.51-3.16-2.8-0.77-1.79-2.35-4.49-3.5-6-1.15-1.51-4-3.76-6.34-5-3.54-1.87-5.83-2.24-13.75-2.25-8.43 0-10.01 0.29-14 2.61-2.89 1.68-5.01 3.83-5.93 6-0.79 1.87-1.37 4.74-1.29 6.39 0.08 1.65 0.95 4.07 1.93 5.39 0.98 1.31 3.36 3.22 5.29 4.24 1.92 1.03 12.27 3.66 23 5.86 10.72 2.19 22.2 4.89 25.5 5.98 3.3 1.1 8.25 3.43 11 5.18 2.75 1.75 6.29 4.57 7.86 6.27 1.58 1.69 4.05 5.55 5.5 8.58 2.28 4.76 2.64 6.79 2.64 15.02 0 8.68-0.28 10.1-3.18 16-1.75 3.56-5.35 8.67-8 11.35-2.65 2.68-7.97 6.69-11.82 8.9-4.31 2.49-10.65 4.96-16.5 6.45-8.57 2.19-11.06 2.39-25.5 2.02-14.22-0.36-16.89-0.71-24-3.15-4.4-1.5-9.58-3.68-11.5-4.84-1.93-1.15-5.75-3.97-8.5-6.25-2.75-2.29-6.48-6.37-8.29-9.08-1.82-2.71-4.18-7.84-5.25-11.42-1.08-3.58-1.85-6.57-1.71-6.66 0.14-0.08 7.22-1.1 15.75-2.26 8.52-1.16 16.51-2.32 17.75-2.59 1.73-0.38 2.36 0.03 2.71 1.76 0.25 1.24 1.83 4.39 3.5 7 2.14 3.34 4.6 5.55 8.29 7.47 4.55 2.35 6.45 2.72 14.25 2.75 6.15 0.02 10.42-0.51 13.5-1.68 2.47-0.95 5.62-2.9 7-4.35 1.74-1.84 2.61-4.04 2.87-7.29 0.3-3.79-0.09-5.21-2.09-7.65-1.34-1.65-4.32-3.79-6.61-4.75-2.3-0.96-12.83-3.59-23.42-5.85-10.59-2.25-21.05-4.82-23.25-5.71-2.2-0.88-5.8-2.6-8-3.81-2.2-1.22-5.98-4.16-8.41-6.54-2.42-2.39-5.57-6.82-7-9.84-2.28-4.83-2.59-6.78-2.59-16.02 0-9.79 0.22-10.98 3.17-17 1.92-3.93 5.16-8.35 8.25-11.23 2.79-2.61 8.34-6.32 12.33-8.24 3.99-1.91 10.17-4.14 13.75-4.95 4.69-1.06 10.96-1.38 22.5-1.13zm-644.75 0.59c36.99-0.01 67.92 0.2 68.75 0.48 1.31 0.44 1.5 9.11 1.5 139.5l-16.75 0.25c-9.21 0.14-17.76 0.14-21.25-0.25l0.03-27.25c0.02-16.94 0.57-31.79 1.45-39.25 0.77-6.6 1.21-12.23 0.96-12.5-0.24-0.28-0.57-0.28-0.73 0-0.16 0.27-2.83 3.65-5.95 7.5-3.11 3.85-20.98 22.3-73.75 75l-27.02-27 32.76-32.82c18.01-18.04 36.68-36.04 41.48-40 4.8-3.95 8.63-7.32 8.5-7.48-0.13-0.17-5.18 0.23-11.23 0.88-6.05 0.65-23.83 1.24-68 1.42l-0.44-18.43c-0.36-15.3-0.19-18.56 1-19.22 0.79-0.44 31.7-0.81 68.69-0.83zm441.42 0.16c10.47 0.18 19.34 0.54 19.73 0.82 0.38 0.27 6.43 18.05 13.44 39.5 7 21.45 14.18 44.75 15.95 51.77 1.76 7.03 3.43 12.77 3.71 12.76 0.27-0.01 1.59-4.18 2.92-9.28 1.34-5.09 4.77-16.45 7.64-25.25 2.87-8.8 9.02-27.25 13.68-41 4.66-13.75 8.98-26.01 9.61-27.25 1.14-2.23 1.33-2.25 20.4-2 12.15 0.16 19.19 0.62 19.08 1.25-0.1 0.55-13.87 37-30.61 81-16.73 44-31.22 81.58-32.2 83.5-0.97 1.92-3.66 6.2-5.98 9.5-2.54 3.63-6.55 7.6-10.12 10.05-3.26 2.23-8.4 4.93-11.42 6-4.64 1.64-8.09 1.94-22 1.89-9.66-0.04-17.54-0.52-21.5-2.27l2.29-10.33c1.27-5.69 2.73-12.03 4.21-17.84l9.75 0.64c8.72 0.56 10.2 0.4 14-1.5 2.54-1.28 4.92-3.44 5.92-5.39 0.91-1.79 2.26-6.17 4.33-16.25l-26.02-69c-14.32-37.95-25.99-69.59-25.93-70.32 0.07-1.05 3.9-1.25 19.12-1zm409.33 99.84c4.44-0.05 7.17 0.55 10.5 2.29 2.53 1.31 5.81 4.22 7.5 6.62 2.15 3.06 3.11 5.74 3.38 9.42 0.21 2.83 0.11 6.72-0.23 8.65-0.33 1.94-2.29 5.47-4.38 7.92-2.07 2.44-5.57 5.24-7.77 6.23-2.2 0.99-6.14 1.82-8.75 1.83-2.61 0.01-6.21-0.59-8-1.33-1.79-0.74-4.79-2.65-6.67-4.25-1.88-1.59-4.24-4.7-5.23-6.9-0.99-2.2-1.82-6.36-1.83-9.25-0.01-2.97 0.74-6.86 1.73-8.95 0.96-2.04 3.1-5.04 4.75-6.66 1.65-1.63 4.35-3.55 6-4.26 1.65-0.72 5.7-1.33 9-1.36zm-562.5-22.57c-1.93 0.73-8.68 2.09-15 3.05-6.33 0.95-13.53 2.33-16 3.06-2.48 0.74-6.03 2.38-7.9 3.64-1.87 1.27-4.23 3.87-5.25 5.8-1.02 1.92-1.87 5.3-1.88 7.5-0.02 2.51 0.82 5.31 2.25 7.5 1.34 2.05 4.35 4.53 7.28 5.98 4.05 2.02 6.42 2.48 12.5 2.41 5.64-0.05 8.84-0.67 12.92-2.48 3.22-1.43 7.07-4.26 9.5-6.97 2.24-2.51 4.63-6.33 5.31-8.5 0.68-2.17 1.24-8.1 1.25-13.19 0.01-5.09-0.32-9.22-0.73-9.18-0.41 0.04-2.33 0.66-4.25 1.38z"/>
		</g>
	</g>
</svg>